<?xml version="1.0" encoding="UTF-8" standalone="no"?>
<!-- Created with Inkscape (http://www.inkscape.org/) -->

<svg
   xmlns:dc="http://purl.org/dc/elements/1.1/"
   xmlns:cc="http://creativecommons.org/ns#"
   xmlns:rdf="http://www.w3.org/1999/02/22-rdf-syntax-ns#"
   xmlns:svg="http://www.w3.org/2000/svg"
   xmlns="http://www.w3.org/2000/svg"
   xmlns:xlink="http://www.w3.org/1999/xlink"
   xmlns:sodipodi="http://sodipodi.sourceforge.net/DTD/sodipodi-0.dtd"
   xmlns:inkscape="http://www.inkscape.org/namespaces/inkscape"
   width="142.30667mm"
   height="173.69931mm"
   viewBox="0 0 142.30667 173.69931"
   version="1.1"
   id="svg8"
   inkscape:version="0.92.3 (2405546, 2018-03-11)"
   sodipodi:docname="finger.svg">
  <defs
     id="defs2">
    <linearGradient
       inkscape:collect="always"
       id="linearGradient864">
      <stop
         style="stop-color:#fbc062;stop-opacity:1"
         offset="0"
         id="stop860" />
      <stop
         style="stop-color:#fdda6f;stop-opacity:1"
         offset="1"
         id="stop862" />
    </linearGradient>
    <linearGradient
       inkscape:collect="always"
       xlink:href="#linearGradient864"
       id="linearGradient866"
       x1="513.33307"
       y1="179.77631"
       x2="419.34637"
       y2="56.077438"
       gradientUnits="userSpaceOnUse" />
    <linearGradient
       inkscape:collect="always"
       xlink:href="#linearGradient864"
       id="linearGradient872"
       gradientUnits="userSpaceOnUse"
       x1="513.33307"
       y1="179.77631"
       x2="419.34637"
       y2="56.077438" />
  </defs>
  <sodipodi:namedview
     id="base"
     pagecolor="#ffffff"
     bordercolor="#666666"
     borderopacity="1.0"
     inkscape:pageopacity="0.0"
     inkscape:pageshadow="2"
     inkscape:zoom="0.26247196"
     inkscape:cx="-310.70906"
     inkscape:cy="314.19775"
     inkscape:document-units="mm"
     inkscape:current-layer="layer1"
     showgrid="false"
     inkscape:window-width="1366"
     inkscape:window-height="707"
     inkscape:window-x="0"
     inkscape:window-y="0"
     inkscape:window-maximized="1" />
  <metadata
     id="metadata5">
    <rdf:RDF>
      <cc:Work
         rdf:about="">
        <dc:format>image/svg+xml</dc:format>
        <dc:type
           rdf:resource="http://purl.org/dc/dcmitype/StillImage" />
        <dc:title></dc:title>
      </cc:Work>
    </rdf:RDF>
  </metadata>
  <g
     inkscape:label="Capa 1"
     inkscape:groupmode="layer"
     id="layer1"
     transform="translate(-391.22555,-9.9650238)">
    <g
       id="g870">
      <path
         sodipodi:nodetypes="ccsccscccccssssccccscscccsscccc"
         style="fill:url(#linearGradient872);fill-opacity:1;stroke-width:0.34171045"
         d="m 450.72087,182.79851 c -2.78894,-0.29371 -5.2282,-1.02293 -8.05574,-2.4083 -4.59738,-2.25252 -6.15713,-3.79801 -14.49601,-14.36346 -8.78553,-11.13136 -13.93222,-17.62795 -22.84568,-28.83784 -4.33376,-5.45028 -8.52722,-10.76897 -9.31881,-11.81932 -1.9028,-2.52479 -2.80721,-5.21966 -2.80721,-8.36465 0,-11.10582 11.60793,-14.26354 21.42784,-9.41027 2.34516,1.15904 2.88604,1.66375 8.17121,7.62478 3.11289,3.51097 5.79948,6.43485 5.97018,6.49749 0.18502,0.0679 0.3124,-22.520376 0.31542,-49.680828 0.005,-39.50816 0.0739,-45.853419 0.52313,-47.759389 1.77327,-7.523189 9.16825,-12.566691 16.6211,-11.335884 5.84186,0.964763 7.42602,7.87105 8.87419,13.432389 0.44658,1.714985 0.53033,4.858532 0.53033,19.904638 0,9.8274 0.0782,17.868001 0.17382,17.868001 0.0956,0 0.80373,-0.456311 1.57364,-1.014018 7.05059,-5.10743 19.27194,-4.479101 23.01624,3.414898 0.55979,1.180196 2.69351,2.417424 2.80131,2.749402 0.17247,0.531148 0.40234,0.455343 1.91541,-0.6317 4.51905,-3.246599 10.41159,-4.233395 15.33764,-1.720318 2.38075,1.214563 5.05461,3.985081 6.35532,6.585053 0.66436,1.327989 1.20793,2.692321 1.20793,3.031854 0,1.095063 0.61661,1.045877 2.21863,-0.176978 3.15377,-2.407312 8.58303,-3.244991 12.70076,-1.959592 4.76315,1.486863 8.445,5.241527 9.8377,10.032235 0.50803,1.74757 0.54933,5.022008 0.43095,34.166717 -0.12525,30.83733 -0.16119,32.38222 -0.82943,35.657 -1.66257,8.1476 -4.20136,15.56404 -6.59633,19.26952 -3.42829,5.30424 -8.70664,8.53278 -15.16441,9.27544 -3.25388,0.3742 -56.30668,0.35039 -59.88913,-0.0268 z"
         id="path840"
         inkscape:connector-curvature="0" />
      <path
         style="fill:#fcac0b;stroke-width:0.35277778"
         d="m 449.2575,183.43071 c -4.85986,-0.60528 -9.65996,-2.78555 -13.14487,-5.97056 -1.04782,-0.95765 -8.48044,-10.03579 -16.51694,-20.17364 -8.03649,-10.13785 -17.28563,-21.77492 -20.55365,-25.86016 -7.39943,-9.24978 -7.81649,-10.05079 -7.81649,-15.01242 0,-3.28584 0.10741,-3.93335 0.95105,-5.73357 1.0948,-2.33614 3.94172,-5.50391 6.06446,-6.74792 5.30675,-3.10996 12.41427,-2.42413 16.50294,1.59244 0.86246,0.84724 3.91877,4.1995 6.7918,7.44947 3.27993,3.71024 5.4714,5.90903 5.88936,5.90903 0.64911,0 0.66567,-1.19203 0.66567,-47.903658 0,-51.59895 -0.0616,-49.76525 1.79494,-53.40443 1.91475,-3.75322 6.63031,-7.02772 10.82093,-7.51409 6.05839,-0.7031505 11.8124,2.49478 14.57208,8.09878 l 1.21066,2.45847 0.17639,19.93545 c 0.19919,22.51245 0.024,21.36344 2.88397,18.91541 3.83145,-3.27958 10.128,-3.85122 15.04516,-1.3659 2.57036,1.29916 5.78615,4.79807 6.73112,7.32372 0.40686,1.08744 0.73975,2.11052 0.73975,2.27351 0,0.16299 0.21499,0.47477 0.47775,0.69284 0.36945,0.30662 0.85178,0.11091 2.12765,-0.86329 0.90744,-0.69288 2.55777,-1.68367 3.66739,-2.20174 1.74113,-0.81293 2.47908,-0.94246 5.38717,-0.9456 3.18883,-0.004 3.51396,0.0677 6.05777,1.32488 4.05838,2.00576 6.70594,5.28921 7.83562,9.71756 0.52865,2.07229 1.21782,2.24821 2.92733,0.74724 0.71327,-0.62625 2.17722,-1.55157 3.25322,-2.05626 1.71882,-0.80619 2.40707,-0.91761 5.66796,-0.91761 3.47066,0 3.862,0.074 6.02879,1.14075 2.82852,1.39247 5.6214,4.23076 6.94747,7.0604 l 0.95105,2.0294 0.10316,31.749998 c 0.089,27.39097 0.0259,32.36556 -0.4598,36.23359 -0.92617,7.37627 -3.23192,15.60233 -5.8935,21.0258 -1.58797,3.23581 -5.24112,7.03283 -8.30861,8.63587 -5.14791,2.69023 -2.72147,2.51971 -36.77042,2.58411 -16.7834,0.0317 -31.54715,-0.0708 -32.80833,-0.22787 z m 64.07559,-3.65441 c 4.68214,-1.2467 8.87526,-4.73367 10.97285,-9.12494 2.82343,-5.91081 5.04467,-14.52155 5.74828,-22.28349 0.25477,-2.81057 0.34872,-14.46746 0.27601,-34.24699 L 530.22,84.134772 l -0.94274,-1.78628 c -1.06877,-2.02509 -3.07575,-3.97848 -5.30317,-5.16157 -1.23536,-0.65616 -2.06901,-0.80467 -4.51381,-0.80408 -2.56214,7e-4 -3.25862,0.13722 -4.78489,0.9385 -2.0291,1.06527 -3.98571,3.07698 -5.1531,5.29823 -0.69785,1.32782 -0.81971,2.20593 -0.98542,7.10083 -0.16916,4.99684 -0.26128,5.63832 -0.87388,6.08542 -0.86128,0.62859 -1.29714,0.62852 -2.1582,-3.4e-4 -0.64235,-0.46913 -0.69572,-1.11962 -0.86118,-10.49514 -0.16889,-9.57004 -0.21079,-10.05944 -0.98542,-11.51022 -1.2478,-2.33696 -3.11596,-4.18918 -5.30591,-5.26062 -2.64042,-1.29184 -6.43182,-1.35503 -8.92614,-0.14879 -2.49019,1.20425 -4.39022,3.02508 -5.48672,5.258 l -0.99165,2.01939 -0.10866,9.79486 -0.10867,9.79487 -0.8442,0.55314 c -1.04841,0.68695 -2.22804,0.36319 -2.46092,-0.67541 -0.095,-0.42363 -0.21441,-6.64399 -0.2654,-13.82302 -0.0907,-12.77131 -0.11018,-13.09081 -0.90333,-14.81666 -0.94015,-2.04573 -3.23129,-4.53929 -5.02139,-5.46505 -6.05327,-3.13047 -13.48157,0.0358 -15.51283,6.61225 -0.64774,2.09712 -0.70376,3.2859 -0.70376,14.93321 v 12.65471 l -0.88195,0.57787 c -0.81431,0.53356 -0.94897,0.53396 -1.75602,0.005 l -0.87408,-0.57272 -0.0961,-36.95049 -0.0961,-36.9505 -0.94169,-1.78422 c -2.02149,-3.82994 -5.65937,-6.20865 -9.58677,-6.26837 -4.54309,-0.0691 -8.10529,2.16531 -10.18427,6.38808 l -1.15949,2.35513 -0.094,51.48392 c -0.0675,36.968818 -0.20398,51.616478 -0.48417,51.954078 -0.2146,0.25858 -0.82128,0.47015 -1.34818,0.47015 -0.81089,0 -2.22368,-1.43688 -9.20095,-9.35785 -9.57181,-10.86643 -10.12004,-11.284 -14.80189,-11.27399 -2.10731,0.005 -3.04075,0.19212 -4.58611,0.92174 -3.91053,1.84631 -6.34319,5.40312 -6.62408,9.68513 -0.19868,3.0286 0.45594,4.75852 3.03721,8.02632 0.94494,1.19627 8.83269,11.14442 17.52832,22.10698 8.69564,10.96257 16.85201,21.28132 18.12528,22.93056 4.90864,6.35807 8.83685,9.33824 14.14716,10.73288 2.80607,0.73696 63.44521,0.79705 66.19226,0.0656 z"
         id="path828"
         inkscape:connector-curvature="0" />
    </g>
  </g>
</svg>
