<?xml version="1.0" encoding="UTF-8" standalone="no"?>
<svg
   version="1.1"
   id="svg4146"
   viewBox="0 0 512 512"
   height="512"
   width="512"
   inkscape:version="1.1 (c68e22c387, 2021-05-23)"
   sodipodi:docname="logo-red.svg"
   inkscape:export-filename="/var/www/html/transposer/web/static/img/apple-touch-icon.png"
   inkscape:export-xdpi="108"
   inkscape:export-ydpi="108"
   xmlns:inkscape="http://www.inkscape.org/namespaces/inkscape"
   xmlns:sodipodi="http://sodipodi.sourceforge.net/DTD/sodipodi-0.dtd"
   xmlns="http://www.w3.org/2000/svg"
   xmlns:svg="http://www.w3.org/2000/svg"
   xmlns:rdf="http://www.w3.org/1999/02/22-rdf-syntax-ns#"
   xmlns:cc="http://creativecommons.org/ns#"
   xmlns:dc="http://purl.org/dc/elements/1.1/">
  <sodipodi:namedview
     pagecolor="#ffffff"
     bordercolor="#666666"
     borderopacity="1"
     objecttolerance="10"
     gridtolerance="10"
     guidetolerance="10"
     inkscape:pageopacity="0"
     inkscape:pageshadow="2"
     inkscape:window-width="1842"
     inkscape:window-height="1051"
     id="namedview12"
     showgrid="false"
     inkscape:zoom="0.78666665"
     inkscape:cx="158.89831"
     inkscape:cy="187.5"
     inkscape:window-x="69"
     inkscape:window-y="-9"
     inkscape:window-maximized="1"
     inkscape:current-layer="g4869"
     inkscape:pagecheckerboard="0"
     width="149px" />
  <defs
     id="defs4148" />
  <metadata
     id="metadata4151">
    <rdf:RDF>
      <cc:Work
         rdf:about="">
        <dc:format>image/svg+xml</dc:format>
        <dc:type
           rdf:resource="http://purl.org/dc/dcmitype/StillImage" />
      </cc:Work>
    </rdf:RDF>
  </metadata>
  <g
     transform="translate(0,-902.36218)"
     id="layer1">
    <g
       transform="translate(-189.99998,2.5352147)"
       id="g4869">
      <g
         id="g833"
         transform="matrix(3.4133333,0,0,3.4133333,-458.5333,-2171.5824)">
        <rect
           style="opacity:1;fill:#d32f2f;fill-opacity:1"
           id="rect4740"
           width="150"
           height="150"
           x="189.99998"
           y="899.82697"
           ry="24.13517"
           rx="23.319334" />
        <g
           transform="matrix(0.71825465,0,0,0.71825465,-75.657932,594.50749)"
           id="g4732"
           style="fill:#ffffff">
          <path
             id="path4734"
             d="m 406.88545,527.31562 v -62.8575 h 19.91438 c 12.67014,0 19.1032,0.0721 20.26165,0.54187 6.49564,1.00477 9.2379,4.31519 12.5234,7.27107 4.36547,3.99017 7.62211,9.3534 8.74632,14.40393 0.85055,3.82113 1.11458,30.19408 0.32819,32.78344 -1.6419,5.40643 -2.57971,7.7587 -4.00821,10.05355 -1.57566,2.53128 -4.49476,5.38989 -5.50394,5.38989 -1.11027,0 -0.54177,1.06859 0.97846,1.83919 2.20338,1.11687 5.94559,5.04677 7.6229,8.00523 2.30018,4.05709 2.63183,7.47232 2.63183,27.1026 v 18.32423 h -10.3952 -10.39519 l -0.02,-16.39173 c -0.0208,-17.01571 -0.43262,-20.93733 -2.53577,-24.14522 -2.47109,-3.76911 -5.5563,-4.98055 -12.6842,-4.98055 h -5.5504 v 22.75875 22.75875 h -10.9571 -10.9571 v -62.8575 z m 34.557,-3.47651 c 3.4348,-1.14739 5.49572,-3.96902 6.09773,-8.34843 0.67532,-4.91289 0.64641,-19.03931 -0.0481,-23.52742 -0.74143,-4.79082 -2.5016,-7.0986 -5.62749,-7.85219 -2.24047,-0.60723 -5.4442,-0.68015 -7.75996,-0.68733 h -5.30491 v 20.23 c 0,11.1265 0.16856,20.39257 0.3746,20.59125 0.68755,0.66305 9.98956,0.3553 12.2682,-0.40588 z m 38.49032,3.47651 v -62.8575 h 28.657 21.71464 v 10.29562 10.29563 h -10.14967 c -9.40064,0 -17.49204,0.14801 -17.98088,0.32891 -0.78,0.28864 -0.88881,2.11309 -0.88881,14.90156 v 14.57265 h 17.98087 17.98088 v 10.56657 10.56656 h -17.98088 -17.98087 v 16.46921 c 0,14.51789 0.10525,16.50819 0.88881,16.79813 0.48884,0.1809 8.58024,0.32891 17.98088,0.32891 h 17.09206 v 10.29562 10.29563 h -28.65703 -28.657 z"
             style="fill:#ffffff;fill-opacity:1" />
          <path
             style="fill:#ffffff;fill-opacity:1;stroke:none"
             id="path4736"
             d="m 329.83196,548.33942 h -21.53341 -21.5334 l 10.7667,-18.64847 10.7667,-18.64848 10.76671,18.64848 z"
             transform="matrix(0.52122989,-0.43364408,0.30093221,0.75109356,212.67484,205.5358)" />
          <path
             transform="matrix(0.43364408,0.52122989,-0.75109356,0.30093221,686.46551,266.39419)"
             d="m 329.83196,548.33942 h -21.53341 -21.5334 l 10.7667,-18.64847 10.7667,-18.64848 10.76671,18.64848 z"
             id="path4738"
             style="fill:#ffffff;fill-opacity:1;stroke:none" />
        </g>
      </g>
    </g>
  </g>
</svg>
