<?xml version="1.0" encoding="UTF-8" standalone="no"?>
<svg
   xmlns:dc="http://purl.org/dc/elements/1.1/"
   xmlns:cc="http://creativecommons.org/ns#"
   xmlns:rdf="http://www.w3.org/1999/02/22-rdf-syntax-ns#"
   xmlns:svg="http://www.w3.org/2000/svg"
   xmlns="http://www.w3.org/2000/svg"
   xmlns:xlink="http://www.w3.org/1999/xlink"
   xmlns:sodipodi="http://sodipodi.sourceforge.net/DTD/sodipodi-0.dtd"
   xmlns:inkscape="http://www.inkscape.org/namespaces/inkscape"
   height="120.054"
   version="1.1"
   viewBox="0 0 170 120.054"
   width="170"
   xml:space="preserve"
   id="svg2"
   inkscape:version="0.91 r13725"
   sodipodi:docname="people-star.svg"><metadata
     id="metadata17"><rdf:RDF><cc:Work
         rdf:about=""><dc:format>image/svg+xml</dc:format><dc:type
           rdf:resource="http://purl.org/dc/dcmitype/StillImage" /><dc:title /></cc:Work></rdf:RDF></metadata><sodipodi:namedview
     pagecolor="#ffffff"
     bordercolor="#666666"
     borderopacity="1"
     objecttolerance="10"
     gridtolerance="10"
     guidetolerance="10"
     inkscape:pageopacity="0"
     inkscape:pageshadow="2"
     inkscape:window-width="1366"
     inkscape:window-height="744"
     id="namedview15"
     showgrid="false"
     inkscape:zoom="2.8263472"
     inkscape:cx="177.80414"
     inkscape:cy="56.639401"
     inkscape:window-x="0"
     inkscape:window-y="24"
     inkscape:window-maximized="1"
     inkscape:current-layer="g4193"
     showguides="false"
     inkscape:guide-bbox="true" /><style
     type="text/css"
     id="style4"><![CDATA[
	.st0{fill:#EF3E42;}
	.st1{fill:#54B948;}
	.st2{fill:#FFC425;}
	.st3{fill:#FFFFFF;}
	.st4{fill:none;}
]]></style><defs
     id="defs6"><radialGradient
       id="radialGradient3627"
       gradientUnits="userSpaceOnUse"
       cy="25.625"
       cx="13.139"
       gradientTransform="matrix(0,2.6541,-3.1628,0,97.183,-26.676)"
       r="13.931"><stop
         id="stop3692"
         style="stop-color:#ffeb9f"
         offset="0" /><stop
         id="stop3694"
         style="stop-color:#ffd57e"
         offset=".26238" /><stop
         id="stop3696"
         style="stop-color:#ffbc43"
         offset=".66094" /><stop
         id="stop3698"
         style="stop-color:#ff921a"
         offset="1" /></radialGradient><linearGradient
       id="linearGradient3629"
       y2="9.5799999"
       gradientUnits="userSpaceOnUse"
       x2="21.483"
       gradientTransform="matrix(1.6509,0,0,1.6568,-11.466,-15.046)"
       y1="36.255001"
       x1="21.483"><stop
         id="stop3605"
         style="stop-color:#a7651c"
         offset="0" /><stop
         id="stop3607"
         style="stop-color:#c8a700"
         offset="1" /></linearGradient><linearGradient
       id="linearGradient3648"
       y2="43.444"
       gradientUnits="userSpaceOnUse"
       x2="29.646999"
       y1="2"
       x1="29.646999"><stop
         id="stop3644"
         style="stop-color:#fff"
         offset="0" /><stop
         id="stop3646"
         style="stop-color:#fff;stop-opacity:0"
         offset="1" /></linearGradient><linearGradient
       id="linearGradient3619"
       y2="33.955002"
       gradientUnits="userSpaceOnUse"
       x2="15.215"
       gradientTransform="translate(2.9799,-3.1217)"
       y1="22.292"
       x1="11.566"><stop
         id="stop2687"
         style="stop-color:#fff;stop-opacity:.27451"
         offset="0" /><stop
         id="stop2689"
         style="stop-color:#fff;stop-opacity:0"
         offset="1" /></linearGradient><linearGradient
       inkscape:collect="always"
       xlink:href="#linearGradient4276"
       id="linearGradient4282"
       x1="-16.244209"
       y1="-40.409843"
       x2="-16.859665"
       y2="-28.305088"
       gradientUnits="userSpaceOnUse" /><linearGradient
       inkscape:collect="always"
       id="linearGradient4276"><stop
         style="stop-color:#ffd42a;stop-opacity:1;"
         offset="0"
         id="stop4278" /><stop
         style="stop-color:#d7ac00;stop-opacity:1"
         offset="1"
         id="stop4280" /></linearGradient></defs><g
     id="g4224"
     transform="translate(-3.6640797e-6,-0.34887807)"><path
       inkscape:connector-curvature="0"
       d="m 35.572098,51.028441 c -3.684699,0 -6.550576,-3.003184 -6.550576,-6.552402 0,-3.685728 3.002347,-6.552404 6.550576,-6.552404 3.684699,0 6.550578,3.003184 6.550578,6.552404 0,3.685727 -3.002349,6.552402 -6.550578,6.552402 l 0,0 z m 65.778702,1.365085 c 5.04941,0 8.46116,4.231761 8.46116,8.60003 l 0,20.066736 c 0,3.958744 -5.18586,3.958744 -5.18586,0 l 0,-19.657212 -2.45648,0 0,53.23831 c 0,2.04762 -1.63764,3.68572 -3.684689,3.68572 -2.047051,0 -3.684701,-1.6381 -3.684701,-3.68572 l 0,-30.85093 -2.45647,0 0,30.85093 c 0,2.04762 -1.637641,3.68572 -3.684701,3.68572 -2.047051,0 -3.684692,-1.6381 -3.684692,-3.68572 l 0,-53.23831 -2.456464,0 0,19.657212 c 0,3.958744 -5.185878,3.958744 -5.185878,0 l 0,-20.203244 c 0,-4.777794 3.684709,-8.463522 8.324689,-8.463522 l 15.694086,0 0,0 z m -7.642336,-1.365085 c -3.684702,0 -6.550573,-3.003184 -6.550573,-6.552402 0,-3.685728 3.002353,-6.552404 6.550573,-6.552404 3.684709,0 6.550576,3.003184 6.550576,6.552404 0,3.685727 -3.002347,6.552402 -6.550576,6.552402 l 0,0 z m -69.872816,1.365085 c 5.049404,0 8.461162,4.231761 8.461162,8.60003 l 0,20.066736 c 0,3.958744 -5.185874,3.958744 -5.185874,0 l 0,-19.657212 -2.319995,0 0,53.23831 c 0,2.04762 -1.637645,3.68572 -3.684699,3.68572 -2.047057,0 -3.6847,-1.6381 -3.6847,-3.68572 l 0,-30.85093 -2.456467,0 0,30.85093 c 0,2.04762 -1.637644,3.68572 -3.684698,3.68572 -2.0470569,0 -3.6847005,-1.6381 -3.6847005,-3.68572 l 0,-53.23831 -2.4564671,0 0,19.657212 c 0,3.958744 -5.18587233,3.958744 -5.18587233,0 l 0,-20.203244 c 0,-4.777794 3.68469903,-8.463522 8.32469163,-8.463522 l 15.5576193,0 0,0 z m -7.642339,-1.365085 c -3.684699,0 -6.5505768,-3.003184 -6.5505768,-6.552402 0,-3.685728 2.8658778,-6.552404 6.5505768,-6.552404 3.684699,0 6.550576,3.003184 6.550576,6.552404 0,3.685727 -2.865877,6.552402 -6.550576,6.552402 l 0,0 z m 44.216393,1.501593 c 4.503521,0 7.232932,3.822235 7.915279,5.869862 l 5.595289,18.428635 c 1.09176,3.958744 -3.957644,5.596844 -5.18588,1.77461 l -5.0494,-16.927043 -2.319995,0 8.734097,30.168359 -8.051747,0 0,23.479473 c 0,3.95874 -6.004695,3.95874 -6.004695,0 l 0,-23.752487 -2.456464,0 0,23.615967 c 0,4.09526 -6.004697,4.09526 -6.004697,0 l 0,-23.342953 -8.051751,0 8.734102,-30.168359 -2.183524,0 -5.049403,16.927043 c -1.228235,3.685726 -6.277637,2.184134 -5.185875,-1.77461 l 5.595284,-18.565143 c 0.545883,-2.047626 3.275289,-5.869862 7.915282,-5.869862 l 11.054098,0 0,0.136508 z m -4.912933,-1.501593 c -3.684699,0 -6.550577,-3.003184 -6.550577,-6.552402 0,-3.685728 3.002347,-6.552404 6.550577,-6.552404 3.684701,0 6.550576,3.003184 6.550576,6.552404 0,3.685727 -3.002348,6.552402 -6.550576,6.552402 l 0,0 z m 19.378783,0 c -3.684687,0 -6.550571,-3.003184 -6.550571,-6.552402 0,-3.685728 3.002351,-6.552404 6.550571,-6.552404 3.684709,0 6.550579,3.003184 6.550579,6.552404 0,3.685727 -3.002345,6.552402 -6.550579,6.552402 l 0,0 z"
       id="path10"
       style="fill:#666666" /><g
       id="g4193"
       transform="translate(0.30057957,2.4201059)"><path
         sodipodi:type="star"
         style="opacity:1;fill:url(#linearGradient4282);fill-opacity:1;stroke:none;stroke-width:1.29692042;stroke-miterlimit:4;stroke-dasharray:none;stroke-opacity:1"
         id="path4274"
         sodipodi:sides="5"
         sodipodi:cx="-16.098513"
         sodipodi:cy="-41.466827"
         sodipodi:r1="16.000044"
         sodipodi:r2="6.1360159"
         sodipodi:arg1="-0.26179939"
         sodipodi:arg2="0.36651914"
         inkscape:flatsided="false"
         inkscape:rounded="0"
         inkscape:randomized="0"
         d="m -0.64365706,-45.607944 -9.72639094,6.340068 2.9857838,11.219814 -9.0353828,-7.291159 -9.748019,6.306763 4.142217,-10.846252 -9.010391,-7.32202 11.595414,0.587807 4.179291,-10.832021 3.024142,11.209537 z"
         inkscape:transform-center-x="-1.5712864"
         inkscape:transform-center-y="3.1951771"
         transform="matrix(2.7457157,1.404831,-1.4041586,2.7460474,107.16303,177.6425)" /><path
         sodipodi:nodetypes="ccccccccccccccccccccccccccccccccccccccccccccccc"
         inkscape:connector-curvature="0"
         id="path4170"
         d="m 144.5957,-2.0710438 c -0.96551,0.1807629 -2.03257,0.7969698 -2.47461,1.2441407 L 118.98242,19.872316 92.23633,4.4309093 C 90.88781,3.573849 89.56004,3.291129 88.42188,3.9855969 87.33635,4.6945507 86.87469,6.06577 87.30664,7.2980969 l 0.004,0.00977 12.95898,29.3652341 -23.35156,21.037109 0.0117,0.02539 c -0.0478,0.02982 -0.0947,0.06108 -0.14063,0.09375 l -0.56836,0.511719 c -0.67596,0.80872 -0.83771,1.92965 -0.41797,2.896484 0.56198,1.283236 1.98936,1.94968 3.33399,1.55664 l 0.0273,0.06055 31.30078,-3.183593 12.72657,28.576172 0.0488,-0.0039 c 0.0283,0.122116 0.0649,0.24218 0.10938,0.359375 l 0.13281,0.300782 c 0.52343,1.010857 1.60913,1.601652 2.74219,1.492187 1.39354,-0.139378 2.46707,-1.291504 2.50781,-2.691406 l 0.13477,-0.01367 6.60937,-30.609375 31.42774,-3.306641 0.01,-0.07227 c 1.40108,1.51e-4 2.58436,-1.040131 2.76367,-2.429688 0.12855,-1.031476 -0.32775,-2.048748 -1.18359,-2.638672 l -0.39453,-0.230468 c -0.15631,-0.07354 -0.31912,-0.132391 -0.48633,-0.175782 l 0.0137,-0.09961 -26.88281,-15.640625 6.5625,-30.9257809 -0.0273,-0.013672 c 0.4205,-1.3363827 -0.2167,-2.7771774 -1.48828,-3.3652344 -0.37474,-0.1720418 -0.783,-0.2587626 -1.19532,-0.2539063 z m -1.89648,6.0976563 -6.46875,30.4609375 26.91797,15.660156 -30.96875,3.257813 -6.56836,30.43164 -12.66992,-28.439453 -30.98438,3.154297 23.14063,-20.84375 -12.57422,-28.492187 26.96875,15.572265 z"
         style="color:#000000;font-style:normal;font-variant:normal;font-weight:normal;font-stretch:normal;font-size:medium;line-height:normal;font-family:sans-serif;text-indent:0;text-align:start;text-decoration:none;text-decoration-line:none;text-decoration-style:solid;text-decoration-color:#000000;letter-spacing:normal;word-spacing:normal;text-transform:none;direction:ltr;block-progression:tb;writing-mode:lr-tb;baseline-shift:baseline;text-anchor:start;white-space:normal;clip-rule:nonzero;display:inline;overflow:visible;visibility:visible;opacity:1;isolation:auto;mix-blend-mode:normal;color-interpolation:sRGB;color-interpolation-filters:linearRGB;solid-color:#000000;solid-opacity:1;fill:#ffffff;fill-opacity:1;fill-rule:nonzero;stroke:#ffffff;stroke-width:1.29692042;stroke-linecap:butt;stroke-linejoin:miter;stroke-miterlimit:4;stroke-dasharray:none;stroke-dashoffset:0;stroke-opacity:1;color-rendering:auto;image-rendering:auto;shape-rendering:auto;text-rendering:auto;enable-background:accumulate" /></g></g></svg>