<?xml version="1.0" encoding="UTF-8" standalone="no"?>
<svg
   xmlns:dc="http://purl.org/dc/elements/1.1/"
   xmlns:cc="http://creativecommons.org/ns#"
   xmlns:rdf="http://www.w3.org/1999/02/22-rdf-syntax-ns#"
   xmlns:svg="http://www.w3.org/2000/svg"
   xmlns="http://www.w3.org/2000/svg"
   xmlns:sodipodi="http://sodipodi.sourceforge.net/DTD/sodipodi-0.dtd"
   xmlns:inkscape="http://www.inkscape.org/namespaces/inkscape"
   height="120.054"
   version="1.1"
   viewBox="0 0 170 120.054"
   width="170"
   xml:space="preserve"
   id="svg2"
   inkscape:version="0.91 r13725"
   sodipodi:docname="people.svg"><metadata
     id="metadata17"><rdf:RDF><cc:Work
         rdf:about=""><dc:format>image/svg+xml</dc:format><dc:type
           rdf:resource="http://purl.org/dc/dcmitype/StillImage" /><dc:title /></cc:Work></rdf:RDF></metadata><sodipodi:namedview
     pagecolor="#ffffff"
     bordercolor="#666666"
     borderopacity="1"
     objecttolerance="10"
     gridtolerance="10"
     guidetolerance="10"
     inkscape:pageopacity="0"
     inkscape:pageshadow="2"
     inkscape:window-width="1366"
     inkscape:window-height="744"
     id="namedview15"
     showgrid="false"
     inkscape:zoom="2.8263472"
     inkscape:cx="154.25252"
     inkscape:cy="83.980132"
     inkscape:window-x="0"
     inkscape:window-y="24"
     inkscape:window-maximized="1"
     inkscape:current-layer="g4224" /><style
     type="text/css"
     id="style4"><![CDATA[
	.st0{fill:#EF3E42;}
	.st1{fill:#54B948;}
	.st2{fill:#FFC425;}
	.st3{fill:#FFFFFF;}
	.st4{fill:none;}
]]></style><defs
     id="defs6" /><g
     id="g4224"
     transform="translate(-3.6640797e-6,-0.34887807)"><path
       inkscape:connector-curvature="0"
       d="m 59.523304,17.6333 c -4.861277,0 -8.64227,-3.961041 -8.64227,-8.642271 0,-4.861278 3.96104,-8.642272 8.64227,-8.642272 4.861278,0 8.642272,3.961041 8.642272,8.642272 0,4.861277 -3.961041,8.642271 -8.642272,8.642271 l 0,0 z m 86.782806,1.800473 c 6.66175,0 11.16294,5.581468 11.16294,11.342982 l 0,26.466956 c 0,5.221372 -6.8418,5.221372 -6.8418,0 l 0,-25.926815 -3.24085,0 0,70.218454 c 0,2.70071 -2.16057,4.86128 -4.86128,4.86128 -2.70071,0 -4.86128,-2.16057 -4.86128,-4.86128 l 0,-40.690693 -3.24085,0 0,40.690693 c 0,2.70071 -2.16057,4.86128 -4.86128,4.86128 -2.70071,0 -4.86128,-2.16057 -4.86128,-4.86128 l 0,-70.218454 -3.24084,0 0,25.926815 c 0,5.221372 -6.84181,5.221372 -6.84181,0 l 0,-26.647003 c 0,-6.301657 4.86129,-11.162935 10.98289,-11.162935 l 20.70544,0 0,0 z M 136.22346,17.6333 c -4.86128,0 -8.64227,-3.961041 -8.64227,-8.642271 0,-4.861278 3.96104,-8.642272 8.64227,-8.642272 4.86128,0 8.64227,3.961041 8.64227,8.642272 0,4.861277 -3.96104,8.642271 -8.64227,8.642271 l 0,0 z m -92.184225,1.800473 c 6.661751,0 11.162934,5.581468 11.162934,11.342982 l 0,26.466956 c 0,5.221372 -6.841798,5.221372 -6.841798,0 l 0,-25.926815 -3.060805,0 0,70.218454 c 0,2.70071 -2.160568,4.86128 -4.861277,4.86128 -2.700711,0 -4.861278,-2.16057 -4.861278,-4.86128 l 0,-40.690693 -3.240852,0 0,40.690693 c 0,2.70071 -2.160568,4.86128 -4.861277,4.86128 -2.70071,0 -4.861278,-2.16057 -4.861278,-4.86128 l 0,-70.218454 -3.240852,0 0,25.926815 c 0,5.221372 -6.841798,5.221372 -6.841798,0 l 0,-26.647003 c 0,-6.301657 4.861278,-11.162935 10.982887,-11.162935 l 20.525394,0 0,0 z M 33.956585,17.6333 c -4.861277,0 -8.642271,-3.961041 -8.642271,-8.642271 0,-4.861278 3.780994,-8.642272 8.642271,-8.642272 4.861278,0 8.642272,3.961041 8.642272,8.642272 0,4.861277 -3.780994,8.642271 -8.642272,8.642271 l 0,0 z m 58.335332,1.98052 c 5.941561,0 9.542513,5.041326 10.442743,7.742035 l 7.38194,24.306389 c 1.44038,5.221372 -5.22137,7.38194 -6.8418,2.340615 l -6.661748,-22.325868 -3.060804,0 11.523022,39.790459 -10.622786,0 0,30.96814 c 0,5.22137 -7.922082,5.22137 -7.922082,0 l 0,-31.32823 -3.240851,0 0,31.14818 c 0,5.40142 -7.922082,5.40142 -7.922082,0 l 0,-30.78809 -10.622793,0 11.523029,-39.790459 -2.880757,0 -6.661751,22.325868 c -1.620426,4.861277 -8.282176,2.880757 -6.841798,-2.340615 l 7.38194,-24.486436 c 0.72019,-2.700709 4.321136,-7.742035 10.442745,-7.742035 l 14.583833,0 0,0.180047 z M 85.810214,17.6333 c -4.861279,0 -8.642272,-3.961041 -8.642272,-8.642271 0,-4.861278 3.961041,-8.642272 8.642272,-8.642272 4.861277,0 8.64227,3.961041 8.64227,8.642272 0,4.861277 -3.961041,8.642271 -8.64227,8.642271 l 0,0 z m 25.566716,0 c -4.86127,0 -8.64227,-3.961041 -8.64227,-8.642271 0,-4.861278 3.96104,-8.642272 8.64227,-8.642272 4.86128,0 8.64227,3.961041 8.64227,8.642272 0,4.861277 -3.96104,8.642271 -8.64227,8.642271 l 0,0 z"
       id="path10"
       style="fill:#666666;fill-opacity:1" /><path
       sodipodi:nodetypes="csssccscc"
       inkscape:connector-curvature="0"
       id="path4216"
       d="m 12.86734,57.476128 c -7.3747179,5.12668 -11.2934818,10.9486 -11.2999997,16.87847 -0.020465,18.61888 37.3544517,43.217922 83.4326617,43.217922 46.078208,0 83.460398,-24.599052 83.432658,-43.217922 -0.009,-5.84923 -3.8395,-11.59372 -11.03391,-16.669296 3.42154,3.589982 5.17854,7.403776 5.18321,11.250776 -2.5e-4,17.3133 -34.73483,31.348472 -77.581958,31.348432 -42.84712,4e-5 -77.5816934,-14.035132 -77.5819476,-31.348432 0.025325,-3.92413 1.8737738,-7.811451 5.4492856,-11.45995 z"
       style="opacity:0.82599996;fill:#ffe740;fill-opacity:1;stroke:none;stroke-width:10;stroke-miterlimit:4;stroke-dasharray:none;stroke-opacity:1" /></g></svg>