<?xml version="1.0" encoding="UTF-8" standalone="no"?>
<svg
   xmlns:dc="http://purl.org/dc/elements/1.1/"
   xmlns:cc="http://creativecommons.org/ns#"
   xmlns:rdf="http://www.w3.org/1999/02/22-rdf-syntax-ns#"
   xmlns:svg="http://www.w3.org/2000/svg"
   xmlns="http://www.w3.org/2000/svg"
   xmlns:sodipodi="http://sodipodi.sourceforge.net/DTD/sodipodi-0.dtd"
   xmlns:inkscape="http://www.inkscape.org/namespaces/inkscape"
   enable-background="new 0 0 500 500"
   height="48"
   id="Layer_1"
   version="1.1"
   viewBox="0 0 48 48"
   width="48"
   xml:space="preserve"
   inkscape:version="0.91 r13725"
   sodipodi:docname="search.svg"><metadata
     id="metadata9"><rdf:RDF><cc:Work
         rdf:about=""><dc:format>image/svg+xml</dc:format><dc:type
           rdf:resource="http://purl.org/dc/dcmitype/StillImage" /><dc:title></dc:title></cc:Work></rdf:RDF></metadata><defs
     id="defs7" /><sodipodi:namedview
     pagecolor="#ffffff"
     bordercolor="#666666"
     borderopacity="1"
     objecttolerance="10"
     gridtolerance="10"
     guidetolerance="10"
     inkscape:pageopacity="0"
     inkscape:pageshadow="2"
     inkscape:window-width="1366"
     inkscape:window-height="744"
     id="namedview5"
     showgrid="false"
     inkscape:zoom="3.776"
     inkscape:cx="-3.5373405"
     inkscape:cy="64.896716"
     inkscape:window-x="0"
     inkscape:window-y="24"
     inkscape:window-maximized="1"
     inkscape:current-layer="Layer_1" /><path
     d="m 46.759417,40.765277 c 1.65411,1.652925 1.65411,4.34118 0,5.99412 -1.652935,1.654335 -4.341421,1.654335 -5.983087,0 L 28.521126,34.514642 c -2.858241,1.78218 -6.229268,2.816445 -9.855747,2.816445 C 8.3513173,37.331087 2.5e-7,28.979297 2.5e-7,18.665237 2.5e-7,8.3515218 8.3513173,-1.47775e-4 18.665379,-1.47775e-4 c 10.313943,0 18.665378,8.351669575 18.665378,18.665384775 0,3.616035 -1.035315,6.9975 -2.816565,9.85575 z M 31.997808,18.665237 c 0,-7.35921 -5.972522,-13.3324353 -13.332429,-13.3324353 -7.359909,0 -13.3325477,5.9732253 -13.3325477,13.3324353 0,7.36002 5.9726387,13.332555 13.3325477,13.332555 7.359907,0 13.332429,-5.972535 13.332429,-13.332555 z"
     id="path3"
     inkscape:connector-curvature="0"
     style="clip-rule:evenodd;fill:#808080;fill-rule:evenodd"
     sodipodi:nodetypes="ccccssssccsssss" /></svg>